<svg width="1024" height="546" viewBox="0 0 1024 546" fill="none" xmlns="http://www.w3.org/2000/svg">
<path fill-rule="evenodd" clip-rule="evenodd" d="M494.633 2.14878C494.3 4.62378 493.536 10.9238 492.936 16.1488C488.715 52.8708 474.997 93.9878 456.738 124.649C426.562 175.321 381.8 218.793 352.746 225.643C333.782 230.115 310.098 224.442 296.762 212.235C279.338 196.287 274.516 169.69 285.028 147.515C289.371 138.352 300.001 127.744 309.548 123.044C315.851 119.941 317.22 119.65 325.465 119.658C333.379 119.666 335.134 120.008 339.77 122.442C346.199 125.818 352.148 131.601 355.114 137.358C361.663 150.065 353.993 167.837 339.365 173.851C336.961 174.84 334.992 175.913 334.99 176.235C334.982 177.52 349.21 180.149 356.169 180.149C370.774 180.149 381.64 175.587 391.986 165.113C399.346 157.661 403.486 151.157 408.957 138.451C414.606 125.33 416.508 115.881 416.365 101.649C415.979 63.3078 392.684 32.7028 355.424 21.5818C348.28 19.4488 343.776 18.8208 332.986 18.4538C320.966 18.0458 318.439 18.2658 309.936 20.4638C276.567 29.0888 246.838 56.3388 226.936 96.5438C221.622 107.279 220.956 108.206 220.109 106.044C219.594 104.727 214.813 93.0738 209.486 80.1488C198.971 54.6368 196.617 50.7598 184.957 39.7598C156.343 12.7668 119.007 5.36279 78.9861 18.7448C49.8161 28.4988 23.9611 48.5048 11.1201 71.2578C4.76214 82.5238 -0.0298599 101.171 0.000140081 114.53C0.0251401 125.756 0.261144 125.867 7.82714 118.222C23.5721 102.31 42.5631 94.1488 63.8451 94.1488C99.4821 94.1488 125.481 112.394 148.394 153.482C157.826 170.395 170.162 196.675 175.827 211.92C191.587 254.337 235.104 288.94 283.727 297.717C304.648 301.493 332.423 300.274 354.866 294.593C402.087 282.64 447.481 247.804 473.584 203.486C476.771 198.076 479.515 193.461 479.682 193.232C480.504 192.106 480.966 194.749 482.078 206.925C484.388 232.208 480.037 257.972 468.531 287.149C458.954 311.432 450.589 324.925 438.128 336.188C417.998 354.384 383.185 362.071 349.651 355.724L342.816 354.431L343.467 358.04C346.185 373.12 355.588 390.579 367.486 402.639C385.521 420.92 407.449 429.621 435.486 429.621C450.701 429.621 460.359 427.982 471.806 423.455C475.282 422.08 478.265 421.112 478.434 421.302C478.603 421.493 478.071 425.249 477.252 429.649C475.403 439.573 475.2 465.551 476.882 476.999C480.332 500.481 490.491 521.7 506.632 539.134L512.192 545.139L516.213 542.742C534.078 532.088 547.585 513.771 551.307 495.149C554.657 478.394 554.25 448.302 550.399 428.004C549.557 423.565 549.026 419.775 549.22 419.582C549.413 419.388 553.138 420.362 557.497 421.747C574.098 427.018 597.396 428.601 614.496 425.619C632.735 422.439 646.817 414.264 663.114 397.395C678.102 381.882 688.662 365.507 696.049 346.321C697.665 342.126 698.986 338.59 698.986 338.462C698.986 338.334 696.079 340.43 692.525 343.119C684.289 349.353 675.184 353.69 664.833 356.307C653.734 359.114 634.954 358.537 624.486 355.068C615.718 352.162 593.343 340.866 583.744 334.499C568.98 324.706 554.895 308.904 547.086 293.372C540.63 280.531 534.456 256.792 532.002 235.369C530.904 225.791 530.809 201.808 531.835 193.155L532.486 187.661L537.773 196.655C544.69 208.42 554.189 221.069 563.767 231.269C591.583 260.89 621.218 277.703 659.032 285.317C668.805 287.284 673.569 287.625 691.486 287.636C715.011 287.651 724.338 286.237 745.352 279.472C792.644 264.247 831.691 237.42 855.843 203.561C862.441 194.311 875.595 168.433 895.878 124.799C901.976 111.682 909.001 97.8868 911.489 94.1438C921.827 78.5938 938.87 66.9448 961.814 59.7448C978.316 54.5678 999.73 52.7778 1016.39 55.1858C1020.18 55.7338 1023.45 56.0148 1023.66 55.8088C1024.33 55.1368 1014.79 42.8008 1008.57 36.2938C993.398 20.4378 976.57 10.5568 955.285 5.00977C943.992 2.06577 919.912 1.80577 907.986 4.49677C870.158 13.0348 838.206 34.2518 816.773 65.0648C810.367 74.2748 802.024 90.5308 798.383 100.896C795.417 109.34 793.986 111.172 793.986 106.526C793.986 102.325 787.241 83.3178 782.852 75.1488C777.655 65.4768 772.439 58.5338 763.055 48.7918C744.348 29.3718 723.563 20.1418 698.576 20.1558C669.363 20.1728 642.113 32.9148 616.432 58.5648C601.653 73.3268 596.144 85.5858 595.261 105.68C594.815 115.844 595.064 119.02 596.865 126.144C602.146 147.026 614.308 163.732 631.76 174.075C643.434 180.993 666.127 187.149 679.957 187.149C686.507 187.149 699.025 184.19 704.681 181.305C709.371 178.912 720.986 170.284 720.986 169.193C720.986 168.76 717.499 168.183 713.236 167.91C702.28 167.21 694.813 164.106 688.22 157.513C676.705 145.998 674.072 130.815 682.021 121.762C687.069 116.012 693.865 113.665 705.486 113.656C717.157 113.648 722.013 115.368 729.311 122.094C737.837 129.954 740.986 140.187 740.986 160.038C740.986 180.998 737.024 192.69 725.886 204.597C710.328 221.229 687.822 224.754 646.486 217.034C623.601 212.76 600.071 202.866 583.911 190.723C572.76 182.342 559.766 168.614 551.947 156.952C544.888 146.423 528.701 113.881 521.205 95.1488C510.809 69.1698 502.225 38.7608 497.594 11.5118C495.473 -0.975218 495.179 -1.90422 494.633 2.14878Z" fill="#C28341"/>
</svg>
