<svg width="41" height="53" viewBox="0 0 41 53" fill="none" xmlns="http://www.w3.org/2000/svg">
<path fill-rule="evenodd" clip-rule="evenodd" d="M6.69883 1.88462C-0.133167 8.71662 -2.00617 26.2706 2.31983 42.9376C3.72683 48.3576 6.36883 53.5486 7.26483 52.6526C7.51683 52.3996 6.80083 48.8736 5.67383 44.8156C1.84983 31.0536 2.06683 17.1736 6.24383 8.37162C8.47083 3.68062 12.0418 1.90362 14.4328 4.29862C15.8378 5.70462 16.1458 7.94862 16.1458 16.7716V27.5286L18.9768 23.2526C23.6258 16.2316 32.5178 10.1836 36.1458 11.5756C38.3378 12.4176 38.9588 16.0636 37.7028 20.7266C35.8768 27.5086 25.8408 39.7056 15.9308 47.1876C9.79683 51.8196 9.62283 53.0106 15.5208 50.0016C20.9558 47.2286 25.3118 43.2916 32.0358 35.0716C38.0708 27.6956 40.6458 21.9356 40.6458 15.8116C40.6458 12.0326 38.0288 7.93762 35.6138 7.93762C33.0238 7.93762 27.3708 11.1506 23.2058 14.9886L18.6458 19.1926V12.6416C18.6458 7.05362 18.2658 5.63862 16.0568 3.01462C13.0498 -0.559378 9.56383 -0.98038 6.69883 1.88462Z" fill="#79A3C3"/>
</svg>
