<svg width="372" height="372" viewBox="0 0 372 372" fill="none" xmlns="http://www.w3.org/2000/svg">
<path fill-rule="evenodd" clip-rule="evenodd" d="M181.023 3.45241C178.7 6.95279 177.577 7.22888 172.9 5.44877C164.191 2.13567 154.086 3.11647 141.676 8.47805C135.309 11.2293 123.389 16.2936 115.187 19.7341C106.985 23.1766 100.836 26.5514 101.521 27.2368C103.836 29.5556 122.347 28.3663 127.205 25.588C134.304 21.5277 134.923 21.9274 134.923 30.5634C134.923 42.1033 142.955 49.7219 155.123 49.7219C162.018 49.7219 165.113 48.6465 168.775 44.982C174.259 39.4968 174.944 33.3089 170.267 31.5134C168.079 30.6716 165.634 32.0096 162.761 35.6142C159.035 40.2884 157.83 40.7228 153.181 39.0682C141.312 34.8361 142.064 22.4525 154.561 16.3283C161.029 13.162 162.238 13.1137 168.609 15.7761C189.625 24.5628 180.335 57.4447 156.838 57.4447C146.118 57.4447 142.149 55.4619 130.725 44.4028C123.024 36.9483 120.286 35.5312 112.038 34.7376C98.9758 33.4827 87.0364 39.2092 81.2538 49.5018C78.9366 53.6296 77.0399 58.8793 77.0399 61.1671C77.0399 65.3162 77.011 65.3143 68.67 60.4219C64.0664 57.7228 59.291 55.514 58.0581 55.514C54.641 55.514 55.3897 61.5494 59.6827 68.5926C61.8012 72.0699 63.5338 75.1899 63.5338 75.5278C63.5338 75.8656 60.1419 77.1573 55.9955 78.4007C46.7516 81.1732 37.4034 91.4079 34.5999 101.826C31.6151 112.91 34.7369 122.506 44.3571 131.827C48.7119 136.048 53.5065 141.846 55.0096 144.713C64.0104 161.869 49.3795 182.985 30.2703 180.421C20.8044 179.151 15.7281 174.652 14.1286 166.117C12.4731 157.286 15.8342 150.518 23.4729 147.306C30.878 144.19 35.6303 146.051 38.9643 153.37C40.9825 157.803 40.6449 158.766 35.6959 162.717C32.1129 165.574 30.5906 168.202 31.3585 170.204C32.9561 174.369 38.9605 174.092 44.5076 169.596C48.2102 166.597 49.063 164.074 49.063 156.125C49.063 143.751 43.0798 136.857 30.9244 135.225C24.4048 134.351 23.0696 133.526 24.1327 131.026C27.9183 122.143 29.3113 111.35 27.4514 105.319C25.738 99.7678 25.3135 99.4473 24.1211 102.816C21.6476 109.806 13.7948 129.626 8.49845 142.251C3.33527 154.558 2.81432 164.088 6.6269 176.4C7.58776 179.502 6.92982 180.73 3.87744 181.53C-1.24715 182.869 -1.30311 187.972 3.77518 190.693C5.92651 191.845 7.11505 193.716 6.41466 194.85C0.116961 205.048 2.8259 221.086 15.1627 246.614C19.4828 255.549 23.0156 264.863 23.0156 267.307C23.0156 273.429 26.5117 272.908 28.1054 266.55C29.348 261.598 27.189 247.635 24.0594 240.38C22.8265 237.518 23.6639 237.001 29.5313 237.001C34.461 237.001 38.2794 235.375 42.7615 231.367C48.3395 226.38 49.063 224.586 49.063 215.751C49.063 207.588 48.2314 205.096 44.5076 202.078C38.9161 197.547 32.9541 197.313 31.3237 201.561C30.5153 203.671 31.8273 205.99 35.2444 208.478C41.4282 212.987 41.6405 215.57 36.3808 222.26C31.1925 228.863 25.9966 228.697 19.0081 221.704C12.6699 215.361 11.8402 208.872 16.2741 200.296C22.2862 188.662 42.9853 188.378 51.9688 199.806C61.2494 211.612 59.3219 223.87 45.9605 238.005C32.0029 252.773 29.7435 265.809 38.59 280.515C42.2232 286.554 54.9035 294.922 60.4197 294.922C64.4735 294.922 64.3326 296.573 59.675 303.61C55.3299 310.175 54.6391 316.164 58.2279 316.152C59.5553 316.148 63.4817 314.411 66.9567 312.291C75.3883 307.147 76.3994 307.371 77.858 314.712C80.4859 327.918 93.6312 337.398 109.316 337.398C119.299 337.398 125.05 334.428 132.741 325.306C149.734 305.149 179.943 313.853 179.943 338.904C179.943 350.413 172.952 357.583 161.731 357.583C155.458 357.583 152.846 356.464 149.189 352.21C143.523 345.617 143.33 340.57 148.547 335.349C153.517 330.376 160.351 331.154 162.9 336.985C165.387 342.672 172.304 342.002 173.159 335.99C174.726 324.956 157.382 318.218 144.532 324.867C137.553 328.48 134.923 333.195 134.923 342.097C134.923 345.883 134.595 348.982 134.194 348.982C133.793 348.982 130.348 347.679 126.538 346.086C118.822 342.86 102.968 342.19 101.222 345.016C100.602 346.02 102.939 347.644 106.414 348.623C109.891 349.602 120.672 353.998 130.374 358.388C151.464 367.94 162.186 369.849 171.899 365.789C178.656 362.962 178.916 363.012 180.965 367.515C183.547 373.185 188.245 373.548 189.937 368.208C190.919 365.115 192.089 364.596 195.375 365.795C197.676 366.636 204.769 367.324 211.136 367.324C220.899 367.324 225.734 365.905 242.007 358.263C252.619 353.282 263.771 348.606 266.791 347.872C270.789 346.903 271.576 346.094 269.685 344.895C265.872 342.477 252.689 342.989 244.633 345.87L237.612 348.38L236.576 340.665C235.104 329.669 228.353 323.58 216.355 322.427C208.333 321.655 206.071 322.193 202.56 325.707C199.853 328.416 198.574 331.747 198.959 335.085C199.708 341.553 206.106 343.431 207.623 337.629C210.137 328.007 225.607 332.538 225.607 342.898C225.607 350.859 217.611 357.583 208.144 357.583C198.516 357.583 192.876 352.247 191.479 341.811C189.436 326.572 200.362 314.229 215.896 314.229C224.021 314.229 228.644 316.807 239.669 327.485C248.814 336.342 249.04 336.432 262.008 336.432C273.307 336.432 276.058 335.706 282.022 331.156C286.193 327.972 290.255 322.421 292.263 317.158C294.092 312.362 295.887 308.437 296.248 308.437C296.608 308.437 299.746 310.171 303.221 312.291C312.002 317.649 316.925 317.455 315.293 311.816C314.602 309.426 312.372 305.118 310.34 302.239C308.307 299.363 306.643 296.637 306.643 296.181C306.643 295.725 309.657 294.787 313.341 294.096C327.906 291.36 339.128 274.202 336.953 257.988C336.133 251.871 333.82 247.884 327.14 241.078C311.249 224.891 309.233 209.836 321.336 197.726C330.511 188.546 347.098 189.233 353.992 199.082C356.944 203.3 357.76 215.273 355.333 218.771C353.141 221.928 344.659 227.347 341.908 227.347C334.009 227.347 328.136 211.176 335.103 208.604C342.574 205.845 342.126 198.387 334.489 198.387C325.151 198.387 319.015 210.521 322.312 222.47C324.695 231.114 330.096 235.36 340.137 236.493L348.703 237.458L345.823 244.357C342.438 252.462 341.813 267.174 344.731 270.093C346.166 271.53 347.191 270.215 348.181 265.67C348.956 262.114 353.043 251.819 357.262 242.793C365.681 224.787 368.926 204.681 364.691 196.763C362.732 193.1 363.062 192.299 367.348 190.345C373.269 187.646 373.475 185.953 368.324 182.342C364.698 179.802 364.583 178.923 366.796 170.65C369.754 159.577 367.815 151.295 356.66 127.373C352.342 118.113 348.319 108.095 347.721 105.11C346.101 97.0359 342.662 101.882 342.817 112.022C342.886 116.64 344.283 123.628 345.919 127.547L348.894 134.673H343.108C332.257 134.673 325.185 140.444 321.406 152.387C319.808 157.434 323.785 169.169 327.825 171.333C332.938 174.073 338.848 173.764 340.023 170.698C341.265 167.459 339.477 164.686 335.103 163.07C326.702 159.969 335.508 142.888 344.161 145.503C352.246 147.945 356.809 154.198 356.809 162.833C356.809 169.598 355.781 171.878 350.872 176.012C339.432 185.644 322.453 180.919 315.992 166.306C312.484 158.371 312.279 156.307 314.325 149.48C315.716 144.834 320.096 138.351 325.187 133.399C329.88 128.835 334.574 122.853 335.618 120.108C342.139 102.94 330.636 82.3258 311.924 77.6515L306.595 76.3213L310.257 70.2608C312.274 66.9284 314.55 62.1286 315.32 59.5955C316.617 55.3229 316.325 55.0873 311.317 56.3442C308.345 57.0914 303.545 59.3909 300.649 61.4529L295.381 65.2062L294.195 59.8002C290.949 45.011 277.424 34.4094 261.687 34.3187C252.824 34.2666 245.866 37.6781 238.148 45.8605C227.205 57.464 214.179 60.6169 202.39 54.5158C187.338 46.7274 187.254 20.5604 202.263 15.3244C217.577 9.98401 233.114 26.8797 222.078 36.873C217.218 41.2731 210.05 40.9854 208.836 36.3401C207.789 32.3358 203.212 29.7178 200.351 31.4883C199.384 32.0848 198.595 34.6932 198.595 37.2862C198.595 50.1582 218.269 54.5023 229.815 44.1808C234.843 39.6841 236.034 37.1337 236.117 30.6716C236.173 26.2889 236.331 22.7016 236.466 22.6977C236.601 22.6939 239.829 23.9952 243.639 25.588C251.243 28.7679 265.56 29.3954 269.758 26.7329C271.703 25.5011 270.656 24.6574 265.899 23.6264C262.309 22.8483 251.992 18.9039 242.972 14.861C219.02 4.12816 210.974 2.46196 200.516 6.06659C195.828 7.6826 191.959 8.82751 191.917 8.60934C191.498 6.40447 187.271 0.573722 185.714 0.0543612C184.616 -0.312474 182.507 1.21665 181.023 3.45241ZM101.065 46.6443C82.1009 54.9097 83.0752 82.5034 102.667 91.9948C113.501 97.2425 118.664 97.117 129.208 91.3538C150.968 79.4587 154.378 78.2674 162.995 79.561C167.585 80.2503 174.538 82.9861 178.448 85.6408L185.556 90.4676L193.215 85.1562C205.08 76.9295 217.602 77.5125 232.987 87.0097C248.641 96.6729 255.664 97.7329 267.154 92.1666C279.143 86.359 283.944 78.5706 282.913 66.5963C282.018 56.1898 277.916 50.5038 268.388 46.4706C262.666 44.0495 261.203 44.1305 254.909 47.2197C245.754 51.7163 241.477 59.192 244 66.2835C246.406 73.041 250.778 75.7015 256.931 74.157C263.335 72.5487 265.162 67.5057 261.008 62.9125C258.438 60.0705 258.234 58.7769 260.065 56.9447C264.126 52.8805 272.759 59.2229 273.494 66.8125C274.327 75.4235 269.602 81.9242 260.534 84.6446C250.36 87.6932 239.632 82.6868 234.697 72.5834C231.33 65.6908 231.077 65.5672 224.251 67.4535C220.405 68.5154 214.74 68.8823 211.665 68.2664C208.504 67.6331 203.059 68.4073 199.143 70.0445C191.195 73.3673 189.044 72.4077 192.397 67.0365C195.519 62.034 195.475 61.8796 189.862 58.1996C185.309 55.2148 184.747 55.2244 181.272 58.3715C178.571 60.8177 177.859 63.2639 178.667 67.3145C179.814 73.0449 177.846 74.5238 174.083 70.7589C172.912 69.587 166.008 68.4131 158.744 68.1524C151.48 67.8899 144.185 67.0828 142.533 66.3588C140.382 65.4147 138.743 66.7971 136.745 71.2416C132.791 80.0379 124.734 85.3531 115.349 85.3531C108.951 85.3531 106.491 84.2044 101.926 79.0899C98.8503 75.6475 96.3344 70.8342 96.3344 68.3976C96.3344 62.8488 102.968 55.514 107.986 55.514C112.355 55.514 112.767 57.8289 109.372 63.2697C104.276 71.4366 116.053 78.53 123.505 71.7802C127.786 67.9053 128.326 58.1186 124.535 53.1219C123.132 51.2742 118.847 48.4496 115.011 46.8471C106.844 43.4316 108.384 43.4548 101.065 46.6443ZM63.4219 88.3786C54.7723 90.7553 50.1512 94.0819 46.9831 100.212C38.7116 116.217 56.5358 135.498 69.8875 124.989C76.0714 120.121 76.5421 115.329 71.3018 110.584C67.7921 107.406 67.1245 107.375 62.8392 110.184C57.8246 113.472 55.8161 112.74 55.8161 107.62C55.8161 102.72 62.1582 97.9896 68.7279 97.9896C77.8484 97.9896 84.7577 106.093 84.7577 116.787C84.7577 124.014 83.6984 126.466 78.1976 131.97C74.5895 135.581 70.3911 138.535 68.8688 138.535C65.0967 138.535 66.5534 168.426 70.6419 174.903C74.2558 180.628 72.6524 182.269 66.2852 179.365C61.9343 177.382 60.8616 177.639 57.8208 181.396C54.7202 185.229 54.6449 186.165 57.1358 189.971C59.4106 193.444 61.1626 194.041 66.5322 193.168L73.1328 192.096L70.4644 197.655C68.998 200.713 67.4062 209.897 66.9277 218.064L66.0576 232.917L71.7764 235.288C83.0347 239.955 88.3407 256.765 81.7362 266.85C75.1857 276.855 59.1077 276.889 56.6033 266.906C55.0057 260.538 56.8773 258.698 61.8128 261.781C70.4625 267.187 78.0896 258.25 72.3321 249.456C69.9222 245.776 67.5645 244.724 61.7318 244.724C55.6598 244.724 53.2383 245.901 49.0322 250.904C44.7411 256.007 44.0118 258.397 44.8433 264.608C46.0743 273.787 52.264 280.766 61.6816 283.589C71.0953 286.412 84.8156 280.629 90.6001 271.402C96.7492 261.596 95.1458 246.513 86.6852 234.607C81.5317 227.353 80.0286 223.148 79.4363 214.334C78.7861 204.631 79.4054 202.105 84.3004 194.525L89.9112 185.837L84.9217 179.23C80.7329 173.679 79.9341 170.59 79.9341 159.923C79.9341 148.418 80.6152 146.227 87.1695 136.629C93.062 128.003 94.4049 124.311 94.4049 116.745C94.4049 111.634 93.1469 105.017 91.6091 102.042C86.6929 92.5277 72.8106 85.7991 63.4219 88.3786ZM147.023 92.0624C138.495 96.0049 132.11 104.278 129.928 114.213C128.737 119.644 128.512 119.766 126.005 116.335C124.543 114.335 123.347 111.126 123.347 109.205C123.347 106.346 121.751 105.712 114.558 105.712H105.769L106.358 114.806C106.863 122.616 107.606 124.054 111.627 124.994C118.544 126.616 118.575 130.126 111.683 131.505C99.1243 134.019 88.6166 146.454 88.6166 158.807C88.6166 167.034 94.1194 176.562 100.365 179.151C103.604 180.493 109.565 181.037 114.207 180.416C128.836 178.452 136.067 163.219 126.6 154.316C121.147 149.192 115.361 148.943 111.104 153.65C106.894 158.305 107.076 160.867 111.963 165.758C116.839 170.636 114.373 174.359 107.419 172.614C97.4457 170.107 95.3908 154.627 103.904 146.109C116.017 133.988 137.231 141.24 140.152 158.5C140.899 162.918 141.445 166.964 141.364 167.495C141.283 168.026 140.69 171.285 140.048 174.735C139.27 178.906 139.635 181.01 141.136 181.01C144.269 181.01 154.218 171.191 154.218 168.1C154.218 166.706 155.427 165.565 156.905 165.565C159.855 165.565 161.935 169.621 161.935 175.376C161.935 177.72 163.274 179.079 165.58 179.079C167.585 179.079 171.276 180.761 173.78 182.815C178.301 186.524 178.307 186.575 174.477 189.511C172.354 191.141 168.663 192.5 166.277 192.533C163.047 192.579 161.935 193.736 161.935 197.052C161.935 199.504 160.741 203.144 159.28 205.142C156.764 208.587 156.462 208.455 153.452 202.634C150.424 196.773 141.526 189.206 139.751 190.982C139.288 191.444 139.596 194.386 140.434 197.518C142.884 206.671 139.457 219.839 132.926 226.376C128.18 231.126 125.538 232.174 118.328 232.174C110.757 232.174 108.706 231.257 103.684 225.635C98.7519 220.109 98.0188 218.012 98.9603 212.12C99.5739 208.283 101.936 203.625 104.206 201.765C108.889 197.937 109.757 197.782 113.445 200.118C115.575 201.47 115.297 202.58 111.998 205.882C106.983 210.9 106.836 214.191 111.44 218.36C116.35 222.806 121.93 222.347 126.87 217.087C137.956 205.277 123.387 188.053 105.2 191.467C85.3964 195.185 83.2971 224.026 101.926 236.48C105.532 238.891 110.523 240.862 113.02 240.862C119.407 240.862 118.666 244.641 111.77 247.245C106.58 249.205 105.982 250.286 105.982 257.696V265.961H114.664C121.739 265.961 123.347 265.319 123.347 262.486C123.347 260.575 124.383 257.974 125.648 256.708C127.431 254.924 129.062 256.688 132.884 264.527C143.789 286.902 172.248 289.335 179.351 268.5C185.839 249.462 164.029 231.191 152.429 245.95C147.511 252.205 147.416 254.792 151.958 258.905C156.724 263.22 163.064 262.932 166.34 258.25C169.64 253.539 171.583 255.121 171.583 262.521C171.583 267.085 170.336 268.61 164.664 270.981C147.357 278.218 132.695 260.173 141.709 242.729C146.672 233.128 163.641 227.087 174.282 231.135C177.336 232.298 180.267 232.815 180.794 232.288C182.528 230.554 175.642 221.893 169.771 218.422C162.877 214.346 164.936 209.971 173.747 209.971C178.262 209.971 179.3 209.137 179.3 205.513C179.3 203.061 180.603 199.369 182.196 197.307C185.037 193.629 185.164 193.645 188.949 198.118C191.07 200.624 192.806 204.318 192.806 206.324C192.806 208.631 194.165 209.971 196.507 209.971C201.504 209.971 206.313 211.942 206.313 213.989C206.313 214.91 203.723 217.004 200.557 218.642C197.391 220.281 193.462 224.212 191.824 227.38C190.188 230.548 189.094 233.139 189.393 233.139C189.692 233.139 192.97 232.253 196.679 231.168C206.606 228.264 220.465 232.023 226.56 239.269C235.775 250.228 231.746 267.496 218.991 271.709C209.712 274.773 198.595 269.435 198.595 261.915C198.595 256.582 201.915 255.769 206.199 260.055C210.025 263.884 214.011 263.757 219.336 259.633C223.147 256.682 222.155 249.641 217.283 245.06C211.005 239.159 203.324 239.694 196.517 246.506C185.077 257.953 191.525 279.542 207.268 282.498C220.795 285.037 237.043 273.999 240.068 260.21C241.635 253.078 245.606 253.443 246.476 260.801C247.043 265.589 247.753 265.961 256.301 265.961H265.514L265.641 257.501C265.759 249.73 265.301 248.906 260.015 247.365C252.388 245.145 252.768 242.196 260.935 240.246C282.516 235.095 289.221 202.366 270.517 193.485C258.253 187.66 246.001 192.199 240.934 204.441C238.849 209.479 239.036 210.88 242.395 215.404C246.632 221.107 255.12 223.156 259.488 219.528C263.611 216.105 262.855 208.671 258.041 205.299C253.047 201.798 254.309 199.835 261.552 199.835C268.277 199.835 271.914 204.909 271.914 214.29C271.914 233.466 245.117 239.327 234.133 222.553C229.991 216.224 228.526 203.864 231.06 196.591C232.763 191.699 232.62 190.664 230.243 190.664C227.114 190.664 219.753 197.329 216.542 203.067C213.812 207.951 210.171 205.212 210.171 198.273C210.171 193.82 209.311 192.594 206.185 192.594C200.617 192.594 194.736 189.123 194.736 185.837C194.736 182.607 200.588 179.079 205.944 179.079C208.682 179.079 209.689 177.742 209.689 174.108C209.689 167.98 213.98 163.126 215.551 167.476C217.222 172.102 226.963 181.01 230.349 181.01C232.827 181.01 233.055 180.25 231.463 177.276C226.591 168.165 231.214 149.308 239.794 143.294C242.015 141.738 247.861 140.465 252.785 140.465C259.887 140.465 262.793 141.518 266.828 145.555C278.024 156.76 268.971 179.354 256.478 171.382C254.022 169.814 254.24 169.073 257.925 166.474C263.181 162.771 263.499 157.625 258.737 153.314C248.612 144.145 235.86 157.158 242.094 170.301C246.941 180.522 260.304 184.123 271.634 178.259C281.759 173.019 284.779 156.39 277.712 144.792C273.31 137.567 263.304 130.829 256.96 130.819C250.504 130.808 251.708 127.551 259.067 125.12C265.083 123.133 265.525 122.405 265.647 114.252L265.78 105.516L256.804 106.097C249.603 106.564 247.691 107.44 247.122 110.539C246.734 112.663 245.472 115.561 244.321 116.978C242.698 118.976 241.656 117.598 239.694 110.866C235.14 95.2403 217.233 85.3319 203.741 90.9734C195.164 94.5588 190.877 100.944 190.877 110.13C190.877 122.919 197.074 130.644 207.424 130.75C213.833 130.818 221.748 124.191 221.748 118.758C221.748 114.501 216.49 109.574 211.945 109.574C209.888 109.574 206.756 111.267 204.985 113.337C201.142 117.83 198.595 116.787 198.595 110.725C198.595 104.241 204.489 99.9107 213.218 99.9821C224.993 100.077 231.395 107.099 231.395 119.919C231.395 136.391 210.777 146.767 192.465 139.512C189.893 138.492 189.449 139.073 190.302 142.336C191.203 145.781 193.943 148.366 206.257 157.386C208.134 158.761 201.282 161.645 196.069 161.674C192.747 161.692 191.139 162.495 191.913 163.75C193.609 166.497 189.071 177.149 186.206 177.149C182.322 177.149 179.3 172.754 179.3 167.109C179.3 162.475 178.529 161.703 173.898 161.703C165.08 161.703 162.958 157.772 169.595 153.733C175.416 150.19 182.499 141.091 180.776 139.367C180.238 138.83 177.583 139.4 174.876 140.635C167.293 144.091 153.166 141.195 145.896 134.694C140.536 129.902 139.747 127.96 139.747 119.542C139.747 106.771 145.635 99.9204 156.61 99.9204C167.018 99.9204 171.583 102.786 171.583 109.321C171.583 116.561 169.615 118.102 166.34 113.424C162.562 108.027 155.001 108.514 151.146 114.401C148.213 118.88 148.219 119.583 151.213 124.159C163.338 142.674 188.239 122.042 178.515 101.538C172.891 89.676 160.347 85.9015 147.023 92.0624ZM286.475 94.3078C273.993 105.274 272.803 121.535 283.409 136.185C294.625 151.679 294.997 168.121 284.42 180.699C280.177 185.746 279.988 186.625 282.668 188.853C290.259 195.155 294.38 211.544 290.924 221.686C289.682 225.332 286.249 231.871 283.295 236.221C273.476 250.68 273.602 263.085 283.681 274.572C294.65 287.074 308.575 287.678 320.578 276.171C332.11 265.114 324.342 244.724 308.598 244.724C300.299 244.724 296.996 247.515 296.996 254.528C296.996 261.586 301.86 265.537 306.775 262.467C316.298 256.514 319.648 262.778 311.371 271.06C307.531 274.903 305.304 275.7 301.241 274.692C282.188 269.96 280.569 243.108 298.876 235.429C304.502 233.07 306.279 231.379 305.341 229.278C304.629 227.685 303.545 220.215 302.933 212.678C302.298 204.868 300.575 197.464 298.926 195.463C296.199 192.156 296.443 192.019 303.101 193.091C308.571 193.971 310.923 193.4 313.485 190.565C316.611 187.109 316.613 186.615 313.507 181.873C311.527 178.848 309.119 177.292 307.465 177.964C297.99 181.81 298.2 181.81 299.873 177.967C300.763 175.925 302.1 167.737 302.842 159.772C303.585 151.808 304.785 143.91 305.509 142.218C306.489 139.923 305.264 138.697 300.658 137.376C287.077 133.478 281.321 113.347 290.878 103.168C298.85 94.6765 310.497 95.4874 314.749 104.828C317.771 111.462 313.362 114.876 308.021 110.039C302.924 105.423 297.961 109.093 297.961 117.482C297.961 130.175 315.166 131.953 322.949 120.065C328.184 112.07 326.802 102.33 319.378 94.9005C313.644 89.1624 311.587 88.3361 303.045 88.3361C294.872 88.3361 292.159 89.313 286.475 94.3078ZM106.661 277.664C98.779 280.027 89.1472 291.094 87.5477 299.623C84.9159 313.665 98.9893 329.588 111.587 326.819C125.917 323.67 132.828 306.42 122.476 299.633C113.871 293.992 104.353 300.363 109.372 308.404C112.783 313.868 112.351 316.16 107.911 316.16C102.619 316.16 96.3344 309.429 96.3344 303.759C96.3344 301.185 98.5822 296.407 101.33 293.14C105.623 288.033 107.618 287.199 115.54 287.199C126.001 287.199 133.059 291.549 136.64 300.201C138.859 305.562 139.014 305.605 153.783 304.915C162.117 304.527 170.573 303.023 172.962 301.502C175.312 300.008 177.699 298.784 178.268 298.784C180.232 298.784 179.293 306.284 177.163 307.601C175.808 308.439 177.049 310.551 180.539 313.355L186.053 317.786L190.258 313.868C193.787 310.58 194.124 309.207 192.357 305.325C189.544 299.148 191.083 298.112 197.825 301.643C200.902 303.255 207.325 304.45 212.101 304.3C216.876 304.149 223.525 304.636 226.877 305.381C232.541 306.64 233.06 306.311 234.295 300.687C237.097 287.919 259.471 282.297 269.106 291.939C274.906 297.741 275.51 308.259 270.314 312.965C263.461 319.172 255.172 315.216 261.159 308.595C265.056 304.284 263.287 299.114 257.41 297.637C246.485 294.893 239.184 308.19 246.318 317.84C251.321 324.605 259.432 328.389 265.61 326.839C268.354 326.149 273.498 322.684 277.044 319.135C282.28 313.895 283.49 311.183 283.49 304.672C283.49 294.132 279.402 286.635 270.731 281.272C259.907 274.578 249.437 275.387 235.499 283.996C217.557 295.079 205.903 295.658 191.927 286.168L184.873 281.376L178.147 286.51C165.354 296.274 149.61 294.515 131.124 281.257C124.963 276.837 114.527 275.306 106.661 277.664Z" fill="#403936"/>
</svg>
